<svg xmlns="http://www.w3.org/2000/svg" width="188" height="36" viewBox="0 0 188 36" fill="none">
  <path d="M18 12.6C16.5678 12.6 15.1943 13.1689 14.1816 14.1816C13.1689 15.1943 12.6 16.5678 12.6 18C12.6 19.4322 13.1689 20.8057 14.1816 21.8184C15.1943 22.8311 16.5678 23.4 18 23.4C19.4322 23.4 20.8057 22.8311 21.8184 21.8184C22.8311 20.8057 23.4 19.4322 23.4 18C23.4 16.5678 22.8311 15.1943 21.8184 14.1816C20.8057 13.1689 19.4322 12.6 18 12.6ZM18 9C20.3869 9 22.6761 9.94821 24.364 11.636C26.0518 13.3239 27 15.6131 27 18C27 20.3869 26.0518 22.6761 24.364 24.364C22.6761 26.0518 20.3869 27 18 27C15.6131 27 13.3239 26.0518 11.636 24.364C9.94821 22.6761 9 20.3869 9 18C9 15.6131 9.94821 13.3239 11.636 11.636C13.3239 9.94821 15.6131 9 18 9ZM29.7 8.55C29.7 9.14674 29.4629 9.71903 29.041 10.141C28.619 10.5629 28.0467 10.8 27.45 10.8C26.8533 10.8 26.281 10.5629 25.859 10.141C25.4371 9.71903 25.2 9.14674 25.2 8.55C25.2 7.95326 25.4371 7.38097 25.859 6.95901C26.281 6.53705 26.8533 6.3 27.45 6.3C28.0467 6.3 28.619 6.53705 29.041 6.95901C29.4629 7.38097 29.7 7.95326 29.7 8.55ZM18 3.6C13.5468 3.6 12.8196 3.6126 10.7478 3.7044C9.3366 3.771 8.3898 3.96 7.5114 4.302C6.77631 4.57189 6.11174 5.00447 5.5674 5.5674C5.00401 6.11172 4.57084 6.77625 4.3002 7.5114C3.9582 8.3934 3.7692 9.3384 3.7044 10.7478C3.6108 12.735 3.5982 13.4298 3.5982 18C3.5982 22.455 3.6108 23.1804 3.7026 25.2522C3.7692 26.6616 3.9582 27.6102 4.2984 28.4868C4.6044 29.2698 4.9644 29.8332 5.562 30.4308C6.1686 31.0356 6.732 31.3974 7.506 31.6962C8.3952 32.04 9.342 32.2308 10.746 32.2956C12.7332 32.3892 13.428 32.4 17.9982 32.4C22.4532 32.4 23.1786 32.3874 25.2504 32.2956C26.658 32.229 27.6048 32.04 28.485 31.6998C29.2194 31.4286 29.8837 30.9962 30.429 30.4344C31.0356 29.8296 31.3974 29.2662 31.6962 28.4904C32.0382 27.6048 32.229 26.658 32.2938 25.2504C32.3874 23.265 32.3982 22.5684 32.3982 18C32.3982 13.5468 32.3856 12.8196 32.2938 10.7478C32.2272 9.3402 32.0364 8.3898 31.6962 7.5114C31.4249 6.77703 30.9925 6.11277 30.4308 5.5674C29.8867 5.00372 29.2221 4.5705 28.4868 4.3002C27.6048 3.9582 26.658 3.7692 25.2504 3.7044C23.265 3.6108 22.572 3.6 18 3.6ZM18 0C22.8906 0 23.5008 0.0179999 25.4214 0.108C27.3366 0.198 28.6434 0.4986 29.79 0.945C30.978 1.4022 31.9788 2.0214 32.9796 3.0204C33.8949 3.92021 34.6031 5.00866 35.055 6.21C35.4996 7.3566 35.802 8.6634 35.892 10.5804C35.9766 12.4992 36 13.1094 36 18C36 22.8906 35.982 23.5008 35.892 25.4196C35.802 27.3366 35.4996 28.6416 35.055 29.79C34.6044 30.992 33.896 32.0807 32.9796 32.9796C32.0795 33.8946 30.9912 34.6028 29.79 35.055C28.6434 35.4996 27.3366 35.802 25.4214 35.892C23.5008 35.9766 22.8906 36 18 36C13.1094 36 12.4992 35.982 10.5786 35.892C8.6634 35.802 7.3584 35.4996 6.21 35.055C5.00819 34.6041 3.91955 33.8957 3.0204 32.9796C2.10498 32.0799 1.39673 30.9914 0.945 29.79C0.4986 28.6434 0.198 27.3366 0.108 25.4196C0.0216003 23.5008 0 22.8906 0 18C0 13.1094 0.0180003 12.4992 0.108 10.5804C0.198 8.6616 0.4986 7.3584 0.945 6.21C1.39543 5.00792 2.10385 3.91918 3.0204 3.0204C3.91981 2.10462 5.00837 1.39631 6.21 0.945C7.3566 0.4986 8.6616 0.198 10.5786 0.108C12.4992 0.0233999 13.1094 0 18 0Z" fill="#2A2A2A"/>
  <path d="M94.5996 20.385H96.7425L97.5996 16.425H94.5996V14.445C94.5996 13.4253 94.5996 12.465 96.3139 12.465H97.5996V9.1386C97.3202 9.09603 96.265 9 95.1508 9C92.8236 9 91.171 10.6404 91.171 13.653V16.425H88.5996V20.385H91.171V28.8H94.5996V20.385Z" fill="#2A2A2A"/>
  <path d="M94 3.6C89.5468 3.6 88.8196 3.6126 86.7478 3.7044C85.3366 3.771 84.3898 3.96 83.5114 4.302C82.7763 4.57189 82.1117 5.00447 81.5674 5.5674C81.004 6.11172 80.5708 6.77625 80.3002 7.5114C79.9582 8.3934 79.7692 9.3384 79.7044 10.7478C79.6108 12.735 79.5982 13.4298 79.5982 18C79.5982 22.455 79.6108 23.1804 79.7026 25.2522C79.7692 26.6616 79.9582 27.6102 80.2984 28.4868C80.6044 29.2698 80.9644 29.8332 81.562 30.4308C82.1686 31.0356 82.732 31.3974 83.506 31.6962C84.3952 32.04 85.342 32.2308 86.746 32.2956C88.7332 32.3892 89.428 32.4 93.9982 32.4C98.4532 32.4 99.1786 32.3874 101.25 32.2956C102.658 32.229 103.605 32.04 104.485 31.6998C105.219 31.4286 105.884 30.9962 106.429 30.4344C107.036 29.8296 107.397 29.2662 107.696 28.4904C108.038 27.6048 108.229 26.658 108.294 25.2504C108.387 23.265 108.398 22.5684 108.398 18C108.398 13.5468 108.386 12.8196 108.294 10.7478C108.227 9.3402 108.036 8.3898 107.696 7.5114C107.425 6.77703 106.992 6.11277 106.431 5.5674C105.887 5.00372 105.222 4.5705 104.487 4.3002C103.605 3.9582 102.658 3.7692 101.25 3.7044C99.265 3.6108 98.572 3.6 94 3.6ZM94 0C98.8906 0 99.5008 0.0179999 101.421 0.108C103.337 0.198 104.643 0.4986 105.79 0.945C106.978 1.4022 107.979 2.0214 108.98 3.0204C109.895 3.92021 110.603 5.00866 111.055 6.21C111.5 7.3566 111.802 8.6634 111.892 10.5804C111.977 12.4992 112 13.1094 112 18C112 22.8906 111.982 23.5008 111.892 25.4196C111.802 27.3366 111.5 28.6416 111.055 29.79C110.604 30.992 109.896 32.0807 108.98 32.9796C108.08 33.8946 106.991 34.6028 105.79 35.055C104.643 35.4996 103.337 35.802 101.421 35.892C99.5008 35.9766 98.8906 36 94 36C89.1094 36 88.4992 35.982 86.5786 35.892C84.6634 35.802 83.3584 35.4996 82.21 35.055C81.0082 34.6041 79.9195 33.8957 79.0204 32.9796C78.105 32.0799 77.3967 30.9914 76.945 29.79C76.4986 28.6434 76.198 27.3366 76.108 25.4196C76.0216 23.5008 76 22.8906 76 18C76 13.1094 76.018 12.4992 76.108 10.5804C76.198 8.6616 76.4986 7.3584 76.945 6.21C77.3954 5.00792 78.1038 3.91918 79.0204 3.0204C79.9198 2.10462 81.0084 1.39631 82.21 0.945C83.3566 0.4986 84.6616 0.198 86.5786 0.108C88.4992 0.0233999 89.1094 0 94 0Z" fill="#2A2A2A"/>
  <path d="M164.778 10.8008C164.777 11.2782 164.578 11.7359 164.224 12.0733C163.869 12.4106 163.389 12.6 162.888 12.5998C162.387 12.5996 161.907 12.4097 161.553 12.072C161.199 11.7343 161 11.2764 161 10.799C161 10.3216 161.199 9.86392 161.554 9.52654C161.908 9.18916 162.389 8.99976 162.89 9C163.391 9.00024 163.871 9.1901 164.225 9.52782C164.579 9.86553 164.778 10.3234 164.778 10.8008ZM164.834 13.9326H161.057V25.2H164.834V13.9326ZM170.803 13.9326H167.044V25.2H170.765V19.2873C170.765 15.9935 175.27 15.6875 175.27 19.2873V25.2H179V18.0634C179 12.5107 172.333 12.7177 170.765 15.4445L170.803 13.9326Z" fill="#2A2A2A"/>
  <path d="M170 3.6C165.547 3.6 164.82 3.6126 162.748 3.7044C161.337 3.771 160.39 3.96 159.511 4.302C158.776 4.57189 158.112 5.00447 157.567 5.5674C157.004 6.11172 156.571 6.77625 156.3 7.5114C155.958 8.3934 155.769 9.3384 155.704 10.7478C155.611 12.735 155.598 13.4298 155.598 18C155.598 22.455 155.611 23.1804 155.703 25.2522C155.769 26.6616 155.958 27.6102 156.298 28.4868C156.604 29.2698 156.964 29.8332 157.562 30.4308C158.169 31.0356 158.732 31.3974 159.506 31.6962C160.395 32.04 161.342 32.2308 162.746 32.2956C164.733 32.3892 165.428 32.4 169.998 32.4C174.453 32.4 175.179 32.3874 177.25 32.2956C178.658 32.229 179.605 32.04 180.485 31.6998C181.219 31.4286 181.884 30.9962 182.429 30.4344C183.036 29.8296 183.397 29.2662 183.696 28.4904C184.038 27.6048 184.229 26.658 184.294 25.2504C184.387 23.265 184.398 22.5684 184.398 18C184.398 13.5468 184.386 12.8196 184.294 10.7478C184.227 9.3402 184.036 8.3898 183.696 7.5114C183.425 6.77703 182.992 6.11277 182.431 5.5674C181.887 5.00372 181.222 4.5705 180.487 4.3002C179.605 3.9582 178.658 3.7692 177.25 3.7044C175.265 3.6108 174.572 3.6 170 3.6ZM170 0C174.891 0 175.501 0.0179999 177.421 0.108C179.337 0.198 180.643 0.4986 181.79 0.945C182.978 1.4022 183.979 2.0214 184.98 3.0204C185.895 3.92021 186.603 5.00866 187.055 6.21C187.5 7.3566 187.802 8.6634 187.892 10.5804C187.977 12.4992 188 13.1094 188 18C188 22.8906 187.982 23.5008 187.892 25.4196C187.802 27.3366 187.5 28.6416 187.055 29.79C186.604 30.992 185.896 32.0807 184.98 32.9796C184.08 33.8946 182.991 34.6028 181.79 35.055C180.643 35.4996 179.337 35.802 177.421 35.892C175.501 35.9766 174.891 36 170 36C165.109 36 164.499 35.982 162.579 35.892C160.663 35.802 159.358 35.4996 158.21 35.055C157.008 34.6041 155.92 33.8957 155.02 32.9796C154.105 32.0799 153.397 30.9914 152.945 29.79C152.499 28.6434 152.198 27.3366 152.108 25.4196C152.022 23.5008 152 22.8906 152 18C152 13.1094 152.018 12.4992 152.108 10.5804C152.198 8.6616 152.499 7.3584 152.945 6.21C153.395 5.00792 154.104 3.91918 155.02 3.0204C155.92 2.10462 157.008 1.39631 158.21 0.945C159.357 0.4986 160.662 0.198 162.579 0.108C164.499 0.0233999 165.109 0 170 0Z" fill="#2A2A2A"/>
</svg>