<svg width="239" height="55" viewBox="0 0 239 55" fill="none" xmlns="http://www.w3.org/2000/svg">
<path d="M0.00631613 1.38947H8.27369V46.4842H21.8773V54H0.00631613V1.38947ZM33.0658 41.8996C33.0658 43.8036 33.4416 45.1564 34.1932 45.9581C34.9949 46.7097 36.0471 47.0855 37.3498 47.0855C38.6525 47.0855 39.6797 46.7097 40.4313 45.9581C41.233 45.1564 41.6338 43.8036 41.6338 41.8996V13.4899C41.6338 11.5859 41.233 10.2581 40.4313 9.50652C39.6797 8.70484 38.6525 8.304 37.3498 8.304C36.0471 8.304 34.9949 8.70484 34.1932 9.50652C33.4416 10.2581 33.0658 11.5859 33.0658 13.4899V41.8996ZM24.7984 14.016C24.7984 9.75705 25.8757 6.5002 28.0302 4.24547C30.1848 1.94063 33.2913 0.788208 37.3498 0.788208C41.4083 0.788208 44.5149 1.94063 46.6694 4.24547C48.8239 6.5002 49.9012 9.75705 49.9012 14.016V41.3735C49.9012 45.6324 48.8239 48.9143 46.6694 51.2192C44.5149 53.4739 41.4083 54.6013 37.3498 54.6013C33.2913 54.6013 30.1848 53.4739 28.0302 51.2192C25.8757 48.9143 24.7984 45.6324 24.7984 41.3735V14.016ZM67.6748 24.6884H79.2492V41.3735C79.2492 45.6324 78.197 48.9143 76.0925 51.2192C74.0382 53.4739 70.9818 54.6013 66.9233 54.6013C62.8647 54.6013 59.7833 53.4739 57.6788 51.2192C55.6245 48.9143 54.5974 45.6324 54.5974 41.3735V14.016C54.5974 9.75705 55.6245 6.5002 57.6788 4.24547C59.7833 1.94063 62.8647 0.788208 66.9233 0.788208C70.9818 0.788208 74.0382 1.94063 76.0925 4.24547C78.197 6.5002 79.2492 9.75705 79.2492 14.016V19.1267H71.4327V13.4899C71.4327 11.5859 71.0319 10.2581 70.2302 9.50652C69.4786 8.70484 68.4515 8.304 67.1487 8.304C65.846 8.304 64.7938 8.70484 63.9921 9.50652C63.2405 10.2581 62.8647 11.5859 62.8647 13.4899V41.8996C62.8647 43.8036 63.2405 45.1314 63.9921 45.8829C64.7938 46.6345 65.846 47.0103 67.1487 47.0103C68.4515 47.0103 69.4786 46.6345 70.2302 45.8829C71.0319 45.1314 71.4327 43.8036 71.4327 41.8996V32.2042H67.6748V24.6884ZM92.1499 41.8996C92.1499 43.8036 92.5257 45.1564 93.2773 45.9581C94.079 46.7097 95.1312 47.0855 96.4339 47.0855C97.7366 47.0855 98.7638 46.7097 99.5154 45.9581C100.317 45.1564 100.718 43.8036 100.718 41.8996V13.4899C100.718 11.5859 100.317 10.2581 99.5154 9.50652C98.7638 8.70484 97.7366 8.304 96.4339 8.304C95.1312 8.304 94.079 8.70484 93.2773 9.50652C92.5257 10.2581 92.1499 11.5859 92.1499 13.4899V41.8996ZM83.8825 14.016C83.8825 9.75705 84.9598 6.5002 87.1143 4.24547C89.2688 1.94063 92.3754 0.788208 96.4339 0.788208C100.492 0.788208 103.599 1.94063 105.753 4.24547C107.908 6.5002 108.985 9.75705 108.985 14.016V41.3735C108.985 45.6324 107.908 48.9143 105.753 51.2192C103.599 53.4739 100.492 54.6013 96.4339 54.6013C92.3754 54.6013 89.2688 53.4739 87.1143 51.2192C84.9598 48.9143 83.8825 45.6324 83.8825 41.3735V14.016ZM134.295 54H126.028V1.38947H134.295V23.9368H143.69V1.38947H152.108V54H143.69V31.4526H134.295V54ZM166.369 23.561H177.718V31.0768H166.369V46.4842H180.649V54H158.102V1.38947H180.649V8.90526H166.369V23.561ZM203.059 54C202.959 53.6493 202.858 53.3236 202.758 53.0229C202.658 52.7223 202.558 52.3465 202.458 51.8956C202.408 51.4446 202.357 50.8684 202.307 50.1669C202.307 49.4655 202.307 48.5886 202.307 47.5364V39.2691C202.307 36.8139 201.881 35.0853 201.03 34.0832C200.178 33.0811 198.8 32.58 196.896 32.58H194.04V54H185.773V1.38947H198.249C202.558 1.38947 205.664 2.39157 207.568 4.39579C209.522 6.4 210.5 9.43137 210.5 13.4899V17.6236C210.5 23.0349 208.696 26.5924 205.088 28.296C207.193 29.1478 208.621 30.5507 209.372 32.5048C210.174 34.4088 210.575 36.7387 210.575 39.4945V47.6116C210.575 48.9143 210.625 50.0667 210.725 51.0688C210.825 52.0208 211.076 52.9979 211.477 54H203.059ZM194.04 8.90526V25.0642H197.272C198.825 25.0642 200.028 24.6634 200.879 23.8617C201.781 23.06 202.232 21.6069 202.232 19.5025V14.3166C202.232 12.4126 201.881 11.0347 201.18 10.1829C200.529 9.33115 199.476 8.90526 198.023 8.90526H194.04ZM224.279 23.561H235.628V31.0768H224.279V46.4842H238.559V54H216.012V1.38947H238.559V8.90526H224.279V23.561Z" fill="#2A2A2A"/>
</svg>
