<svg width="14" height="20" viewBox="0 0 14 20" fill="none" xmlns="http://www.w3.org/2000/svg">
<g id="mouse">
<path d="M7.00065 4.16667C6.54041 4.16667 6.16732 4.53976 6.16732 5V8.33333C6.16732 8.79357 6.54041 9.16667 7.00065 9.16667C7.46089 9.16667 7.83398 8.79357 7.83398 8.33333V5C7.83398 4.53976 7.46089 4.16667 7.00065 4.16667Z" fill="#2A2A2A"/>
<path fill-rule="evenodd" clip-rule="evenodd" d="M0.333984 6.66667C0.333984 2.98477 3.31875 0 7.00065 0C10.6825 0 13.6673 2.98477 13.6673 6.66667V13.3333C13.6673 17.0152 10.6825 20 7.00065 20C3.31875 20 0.333984 17.0152 0.333984 13.3333V6.66667ZM12.0007 6.66667V13.3333C12.0007 16.0948 9.76207 18.3333 7.00065 18.3333C4.23923 18.3333 2.00065 16.0948 2.00065 13.3333V6.66667C2.00065 3.90524 4.23923 1.66667 7.00065 1.66667C9.76207 1.66667 12.0007 3.90524 12.0007 6.66667Z" fill="#2A2A2A"/>
</g>
</svg>
