<svg xmlns="http://www.w3.org/2000/svg" width="35" height="35" viewBox="0 0 35 35" fill="none">
  <g clip-path="url(#clip0_110_225)">
    <path fill-rule="evenodd" clip-rule="evenodd" d="M17.4998 19.5621L25.7496 27.8119C26.0246 28.0776 26.393 28.2246 26.7753 28.2212C27.1577 28.2179 27.5235 28.0646 27.7939 27.7942C28.0643 27.5238 28.2176 27.158 28.221 26.7756C28.2243 26.3933 28.0773 26.0249 27.8116 25.7498L19.5618 17.5001L27.8116 9.25026C28.0773 8.97522 28.2243 8.60684 28.221 8.22447C28.2176 7.8421 28.0643 7.47633 27.7939 7.20595C27.5235 6.93556 27.1577 6.78219 26.7753 6.77886C26.393 6.77554 26.0246 6.92253 25.7496 7.18818L17.4998 15.438L9.24997 7.18818C8.97369 6.9291 8.60745 6.78767 8.22874 6.79382C7.85004 6.79997 7.48858 6.95322 7.22086 7.22113C6.95314 7.48904 6.80015 7.85061 6.79426 8.22932C6.78838 8.60802 6.93007 8.97416 7.18935 9.25026L15.4377 17.5001L7.18789 25.7498C7.0486 25.8844 6.9375 26.0453 6.86107 26.2232C6.78464 26.4011 6.74441 26.5925 6.74273 26.7861C6.74105 26.9798 6.77795 27.1718 6.85127 27.351C6.9246 27.5303 7.03288 27.6931 7.16981 27.83C7.30674 27.9669 7.46956 28.0752 7.64879 28.1485C7.82801 28.2219 8.02004 28.2588 8.21368 28.2571C8.40732 28.2554 8.59868 28.2152 8.7766 28.1387C8.95452 28.0623 9.11544 27.9512 9.24997 27.8119L17.4998 19.5621Z" fill="#2A2A2A"/>
  </g>
  <defs>
    <clipPath id="clip0_110_225">
      <rect width="35" height="35" fill="white"/>
    </clipPath>
  </defs>
</svg>